<?xml version="1.0" encoding="UTF-8"?>
<svg id="Layer_1" data-name="Layer 1" xmlns="http://www.w3.org/2000/svg" viewBox="0 0 271.48 249.57">
  <text transform="translate(0 235.17)" style="font-family: GigaSans-ExtraBold, &apos;Giga Sans&apos;; font-size: 48px; font-weight: 700;"><tspan x="0" y="0" style="fill: #003751;">WISE </tspan><tspan x="155.85" y="0" style="fill: #309a47;">MED</tspan></text>
  <path d="M108.52,161.6s4.4,10.24,12.7,14.93c15.6,8.83,32.45,4.47,32.45,4.47l6.56,16.69,7.5-2.25-6.07-16.64,17.36-7.61-4.23-5.93s-21.81,12.61-41.74,8.86c-12.07-2.27-17.7-16.07-17.7-16.07l-6.83,3.56Z" style="fill: #309a47; fill-rule: evenodd;"/>
  <path d="M113.49,159.28c-4.31-10.95-8.61-21.89-12.92-32.84-2.34-2.08-8.35-8.01-10.14-17.59-.54-2.91-1.61-9.1,1.47-16,3.18-7.13,8.81-10.62,10.84-11.75,0,0,3.4-1.99,7.68-.44,2.01.73,2.22-4.44,1.4-6.25-.94-2.09-6.14-6.3-6.58-4.05-.62,3.13-4.3,7.05-4.3,7.05-2.42,1.39-9.32,5.78-12.83,14.59-2.63,6.6-2.02,12.33-1.71,14.9,1.32,11.11,7.99,18.36,10.61,20.92,4.35,11.07,8.69,22.14,13.04,33.21l3.44-1.75Z" style="fill: #309a47; fill-rule: evenodd;"/>
  <g>
    <g>
      <path d="M210.29,104.95c-.05.25-.11.48-.16.73.03-.13.08-.36.16-.73Z" style="fill: #003751;"/>
      <path d="M208.79,80.95c-.34-.43.54,2.57.7,6.85.11,3.05-.68,7.56-1.45,8.9-2.09,3.64-9.74-.43-9.75-2.25-.03-6.41,5.58-11.05,8.25-13.5,1.5-1.38,7.64-3.77-11.04-3.3-12.4.31-13.72.95-7.71,4.8,3.94,2.52,9.75,3.17,9.75,10.5,0,10.01-27.05,15.08-36.75,3-9.35-11.64,10.4-15.58,12-16.5,0,0-6.67-7.26-19.5,1.5-5.23,3.57-15,1.5-15,1.5,0,0,1.39,2.07,2.6,4.49,1.26,2.52,4.05,4.55,4.15,4.51,0,0-6.37,1.61-11.25-2.25-4.05-3.2-6.75-12-6.75-12,0,0-4.65,13.05,1.02,17.74,10.76,8.89,20.89,21.85,20.73,22.01l-.75-13.5s13.22,4.88,22.5,13.5c11.48,10.66,20.25,27,20.25,27,0,0,1.91-3.91,4.54-8.26,3.63-5.99,6.56-8.06,6.71-8.24.39-.49,3.53-.95,8.09-21.77-.42,1.76,3.5-18.67-1.34-24.73ZM199.79,121.45s-2.76-2.58-6.75-3.75c-2.73-.8-7.36,4.34-7.5,5.25,0,0-5.67-1.96-8.73-6.92-12.3-19.93,1.84-6.98,9.48-10.33,11.32-4.97,9.62-9.46,16.78-2,9.17,9.56-3.28,17.75-3.28,17.75Z" style="fill: #003751;"/>
    </g>
    <path d="M55.04,94.45s2.58-5.39,6-15c5.54-15.58,18.29-23.69,22.5-26.25,10.45-6.35,22.5-6,22.5-6,0,0-9.24,7.86-17.83,16.34-8.04,7.94-13.7,20.13-12.92,20.41,1.18.42,8.25,0,8.25,0-.24-.09-8.26,8.46-11.92,18.55-3.56,9.83-7.58,20.45-7.58,20.45,0,0,9.02-15.75,18.73-28.07,8.33-10.58,15.76-19.21,15.77-19.18,0,0-3.39.17-6,0-2.99-.2-5.25-.75-5.25-.75-.2.06,4.6-6.15,11.63-11.53,3.67-2.81,10.12-6.47,10.12-6.47,0,0,2.09,2.12,3,4.5.77,2.01,3.66,3.03,3.75,3,.14-.04-1.95-4.58-1.71-9.94.18-3.96.21-8.06.21-8.06,0,0,6.06.5,13.5,2.25,4.61,1.08,12.75,3,12.75,3,0,0,3.64-3.39,6.75-4.5,1.66-.59,3,0,3,0,.54-.14-.46-1.6-1.5-2.25-2.25-1.41-3.75-2.25-3.75-2.25,0,0,8.65.02,16.05,1.72,7.28,1.68,12.5,7.18,12.45,7.28,0,0-.83-1.96,0-3,1.29-1.61.24-3.32,9.31,2.68,11.86,7.85,15.03,12.42,13.19,12.32-3.26-.19-7.5-.75-7.5-.75.13-.03,5.73,2.77,9.29,6.1,8.11,7.6,10.52,8.28,9.41,6.65-.71-1.04-11.49-8.59-10.45-9,5.8-2.27-9.91-15.21-17.25-21.75-3.86-3.44,13.21-12.31-6.75-22.5-13.03-3.12-28.66-1.79-38.25-3-9.59-1.21-24-6-24-6,.92.06,3.58,6.26-7.5,11.25-7.83,3.52-12.75,9-12.75,9,0,0,8.08-5.21,17.25-6.75,12.44-2.09,11.79,3.63,15,3,1.47-.29-1.29-.92-2.25-3-1.7-3.66-.75-6-.75-6,0,0,5.78,4.65,12,4.5,6.21.55,15.27-2.02,27-2.25,19.58-.39,19.19,7.35,19.5,11.25.43,5.4-8.25,11.25-8.25,11.25,0,0,.24-9.81-4.5-12.75-5.99-3.72-17.25-.75-17.25-.75,0,0,2.87,1.41,5.75,2.49,3.32,1.24,6.36,4.88,6.25,5.01,0,0-13.61-2.44-22.5-3-6.43-.41-9.12.64-9,.75,0,0,3.39,1.66,6,3.75,2.99,2.39,5.25,5.25,5.25,5.25,0,0-7.34-1.48-18-3-3.84-.55-10.28-.6-15.75-1.5-52.8-8.7-51,52.5-51,52.5Z" style="fill: #003751; fill-rule: evenodd;"/>
    <path d="M151.04,66.7c.08.05,4.65-5.11,9.08-3.61,6.36,2.15,15.39,1.56,14.92,1.36,0,0-1.89,2.11-2.25,3.75-.39,1.73.75,3,.75,3,0,0-1.2-1.4-3-1.5-3.99-.22-11.25.75-11.25.75,0,0,.81-3.34-1.5-3.75-3.1-.55-6.75,0-6.75,0Z" style="fill: #003751; fill-rule: evenodd;"/>
    <path d="M206.54,132.7s3.26,3.79,3,15.75c-.08,3.91-5.99,13.88-12.75,18-8.13,4.95-12.75,13.5-12.75,13.5,0,0,5.23-15.08,2.25-24.75-5.61-18.19-2.18-6.55,3.75-5.25,4.81,1.06,9.08-5.83,9.75-6.75,4.1-5.64,6.75-10.5,6.75-10.5Z" style="fill: #003751; fill-rule: evenodd;"/>
    <path d="M141.29,157.45s5.17,12.25,3,19.5c-2.17,7.26-9,10.5-9,10.5,0,0,13.99-1.52,21-8.25,6.65-6.39,4.5-19.5,4.5-19.5,0,0-4.6,13.72-11.25,8.25-3.25-2.67-8.25-10.5-8.25-10.5Z" style="fill: #003751; fill-rule: evenodd;"/>
    <path d="M82.04,104.95s-1.03,6.48-1.34,12.99c-.41,8.47,1.27,17.04,1.34,17.01,0,0,1.59-4.15,3.75-6.75,1.43-1.72,3.75-2.25,3.75-2.25,0,0,4.93,15.73,6.75,18,3.86,4.81,9.22,11.72,9.43,17.27.39,10.07-.43,20.23-.43,20.23.38.22,21.32-6.51,18-22.5-1.4-6.73-9.95-15.74-16.5-29.25-3.23-6.66-1.5-25.5-1.5-25.5,0,0-1.79.99-3.19,1.93-2.01,1.35-3.6,1.18-3.56,1.07,0,0,1.27-9.91,6.53-18.44,6.07-9.83,18.83-16.89,18.97-16.81,0,0-9.78,25.75,0,39.75,4.8,6.87,14.7,13.87,21,20.25,10.28,10.42,16.5,18.75,16.5,18.75,0,0,1.29-4.86,1.3-10.08,0-6.24-.62-11.85-.55-11.67,0,0,13.49,8.53,15.75,16.5,4.08,14.42,2.25,33,2.25,33,0,0-4.96-12.27-12-19.5-6.84-7.02-15.75-9-15.75-9l-2.25,9s-7.99-13.64-16.21-18.58c-9.91-5.96-14.54-16.67-14.54-16.67,0,0-.75,21.96,9.75,29.25,27.13,18.83-24,28.5-24,28.5,0,0-3.2-23.04-9-27.75-8.75-7.09-13.5-16.5-13.5-16.5,0,0-1.34-1.74-4.5,3-3.57,5.35-.75,15.75-.75,15.75,0,0-10.15-11.66-9-24,1.05-11.27,11.04-23.12,13.5-27Z" style="fill: #003751; fill-rule: evenodd;"/>
  </g>
  <path d="M133.14,0C76.58,0,30.73,45.85,30.73,102.4c0,29.99,15.56,73.55,36.11,92.27l4.56-7.23c-16.03-16.98-33.08-59.85-33.08-85.05,0-52.37,42.45-94.82,94.82-94.82s94.82,42.45,94.82,94.82c0,43.65-29.13,80.3-69.28,91.33l2.45,6.61c44.38-11.22,74.41-50.07,74.41-97.94C235.54,45.85,189.69,0,133.14,0Z" style="fill: #309a47; fill-rule: evenodd;"/>
  <circle cx="69.52" cy="190.57" r="9.28" style="fill: #68bd45; stroke: #fff; stroke-miterlimit: 10; stroke-width: 6px;"/>
  <circle cx="69.52" cy="190.57" r="6.96" style="fill: #fff; stroke: #309a47; stroke-miterlimit: 10; stroke-width: 6px;"/>
</svg>